# xmcd
#
# Track frame offsets:
#	150
#	22859
#	41673
#	80043
#	105603
#	119405
#
# Disc length: 2022 seconds
#
# Revision: 0
# Processed by: cddbd v1.5.2PL0 Copyright (c) Steve Scherf et al.
# Submitted via: EZCDAudioConverter 7.0.6.1
#
DISCID=4407e406
DTITLE=Ithaca - A Game For All Who Know
DYEAR=1900
DGENRE=
TTITLE0=Journey (Destruction/Rebirth - Patterns Of Life)
TTITLE1=Questions (Did You Know - Will We Be Alive)
TTITLE2=Times (Seven Seasons - The Path - Given Time)
TTITLE3=Feelings (Look Around You - I Want To Feel You)
TTITLE4=Dreams (Story Of Our Time - Beneath This Sky)
TTITLE5=Journey ll (A Game For All Who Know)
EXTD=
EXTT0=
EXTT1=
EXTT2=
EXTT3=
EXTT4=
EXTT5=
PLAYORDER=
